<svg xmlns="http://www.w3.org/2000/svg" viewBox="0 0 100 100" xml:space="preserve" class="WcxFQPw"><path d="M99.97 84.638v-9.883c-.434-1.543-.249-3.704-.282-5.646-.468-.286-.309-1.2-.566-1.694-1.548-2.952-5.971-3.835-9.316-2.823-.92.277-1.587.149-2.258.283.295-2.074-.533-3.922 0-5.366-.707-.704-.533-2.288-.847-3.388-2.536-.85-6.104-.674-8.752-1.412-6.589-.295-11.198.579-16.941.566-.03-1.759-.471-3.109-.282-5.083 1.69-.286 3.674-.278 5.364-.564 1.232.197 1.59-.48 2.823-.282.859-.177 2.434.36 2.825-.282.956.64 1.369 1.827 3.386 1.412.257-.498 1.038-.467 1.129-1.13.346-.504.054-1.643.566-1.977V26.193c.314-1.85 1.276-3.056 1.13-5.362-1.063-1.95-4.071-1.956-5.93-3.108-.972.125-1.584-.111-2.258-.281-11.634-.058-22.231.919-33.035 1.693.429-2.122-1.317-2.068-1.977-3.106.51-1.463 2.049-1.901 1.977-3.952-.04-.807-1.179-.517-1.977-.564-.318-.529-1.094-.6-1.411-1.13.8-.985 2.112-1.462 3.104-2.259.944-.682 1.108-2.92.567-4.234-3.223-1.195-7.062.471-5.648 3.952-1.468.32-3.087.487-2.822 2.541.066 1.155 1.177 1.269 2.26 1.413.414.902 2.031.6 2.821 1.13-.599 1.751-3.192 1.511-3.388 3.669-.008.948.389 1.494.848 1.976.243.348 1.815.782 1.129 1.13-2.603.972-6.249.901-9.035 1.692-1.394 2.842-.883 7.586-1.41 11.296v9.316c-.227 2.396-.857 5.479 0 7.341.723.292 1.943 1.017 2.822.282.772.45 1.705.74 2.824.848h14.116c.008 1.777.555 3.021.566 4.8-2.828.098-5.396-.067-7.909-.283-7.017.604-12.594 2.649-20.044 2.823-.048.329-.445.308-.849.28-.537.97-2.076.934-2.541 1.979-.289 2.408 1.25 4.331.85 5.927-.882-.343-1.791-.656-3.108-.562-2.954.713-5.279 2.059-6.775 4.233C.525 73.563-.13 77.99.022 83.225c.526.698.289 2.155.848 2.823.16.496-.343 1.659.282 1.694.163.498-.342 1.659.282 1.694.435 2.197.344 4.927 2.54 5.363 3.011-.123 2.127-3.39 1.415-5.363-.391-2.53-.841-4.995-1.415-7.341-.171-4.406.311-8.161 1.415-11.295 1.721-1.381 4.272-1.938 7.057-2.257.538 4.072 1.455 7.769 1.978 11.858-.271 4.786.464 8.567 1.127 12.424.28.941 1.469.978 1.695 1.975.129 1.095.729 1.717 1.975 1.695 1.361-.051 1.857-.968 1.979-2.26v-4.517c-.508-.812-.541-2.095-.851-3.106-.071-7.83-.764-15.045-1.976-21.738 4.695-.952 8.462-2.834 13.27-3.671 4.657-1.085 10.524-.962 15.531-1.695 9.895-.314 18.688-.666 28.797-.282 2.157.95 5.283.928 7.906 1.413.795 8.235-.238 18.304.562 26.539v4.799c.404 1.293.372 3.017 1.977 3.106 1.706-.74 1.37-3.526 1.414-5.931V67.131c3.236.153 7.496-.721 8.47 1.695v17.786c-.287 1.589-.944 5.021 1.13 5.084 1.71.113 2.41-.791 2.257-2.544.202-1.396.387-2.81.283-4.514zM14.423 62.049h-.566v-.563h.566v.563zm41.219-11.292c-.842-.407-1.721.989-1.692-.282h3.669a22.732 22.732 0 0 0 .281 4.8c-2.796.538-1.46-3.056-2.258-4.518zm-.283-4.8c-.676.172-2.049-.355-2.259.282-6.905.036-13.251-.489-20.325-.282-1.525.455-3.947.008-4.803 1.129-.792-.284.081-1.198 0-1.693v-6.776c-.128-2.884-.425-5.598-.281-8.752-.324-1.653-.318-3.634-.282-5.647 5.498-.056 9.771-1.336 15.245-1.411 5.546.086 10.874-.044 16.095-.282.455.079.484-.267.848-.282 4.53.269 10.296-.7 13.549.847-1.551 6.146-.63 14.688-.562 21.738-3.502-.017-6.601.367-9.599.85-2.005-.215-3.226.351-5.085.281h-2.541zm12.705-18.635c-.22-.061-.328-.234-.279-.564-.292-.742-1.121-.951-1.414-1.693-3.66-1.622-7.102.433-7.621 3.671.101 2.06.153 4.174 1.129 5.364 4.807 1.886 8.492-1.725 8.185-6.778zm-2.821 2.26c-.074 1.956-2.055 3.332-3.954 2.54.558-1.777 2.621-5.706 3.954-2.54zm-22.87-1.413c-.812-1.652-3.378-2.745-5.932-2.259-1.078.206-1.792 1.008-2.54 1.412.017.487-.215.725-.564.847.044 1.739-.609 2.779-.562 4.52.415.051.255.681.281 1.128.353.115.574.364.562.848 1.016.583 1.949 1.252 3.39 1.41 1.557.054 2.599-.412 3.67-.846 1.277-1.644 1.899-3.935 1.695-7.06zm-3.107 5.366c-1.139.492-2.708-.047-3.669-.564.252-1.161 1.06-1.764 1.129-3.106.642-.488 1.577-.681 2.822-.566.317 1.269.558 3.364-.282 4.236zm19.763 3.387c-2.004-.608-4.323.432-6.494-.282-2.058 1.109-4.153.491-7.058.563-.603.526-1.876.384-2.259 1.13-.837.385-1.235 1.21-1.693 1.977-.168 1.582.149 2.673.566 3.67 1.719 1.395 5.059.683 7.339.283 3.729-.037 7.837.308 9.88-1.411 1.178-1.267 1.25-5.022-.281-5.93zM46.892 41.44c-.559.457-2.055.908-2.826.282.103-1.593 1.395-1.997 2.826-2.26v1.978zm4.516 0h-1.697c.229-.98-.417-1.087-.28-1.978.365-.39 1.226-.278 1.978-.28v2.258zm6.21-.283c-.913.577-1.925.621-3.105.283v-2.258h3.105v1.975zM32.775 77.578c3.498-.828 7.356-1.301 11.29-1.693 1.022-4.989-.136-10.206-3.387-11.857h-4.801c-3.371 1.237-6.23 2.992-8.754 5.082-.207.826-.682 1.388-1.125 1.976-.051.423.099 1.044-.285 1.13.323 1.904-.539 3.869 0 5.082 1.528.88 4.432-.027 7.062.28zm-4.517-2.823c-.191-1.599.256-2.566.562-3.671 1.546-1.745 3.888-2.7 5.929-3.953h4.799c1.218 1.326 1.625 3.461 1.411 6.212-1.002-.239-1.689.818-1.974-.283-.426-.422-1.191-.504-1.411-1.129-1.351-.146-2.425-1.786-3.955-.847-.165 1.015.328 1.365.563 1.976.315.192 1.465.94.85 1.131-1.838.61-4.292.601-6.774.564zM75.69 65.72c-.878.99-.881 2.418-.567 3.952.752 1.277 3.636 1.436 5.365.848.418-.996.734-2.09.566-3.671-.874-1.269-3.719-2.357-5.364-1.129zm3.105 3.107c-.734.17-1.017-.114-.847-.847.264.301 1.04.087.847.847zm-13.833-1.978c-.393 1.821-.495 4.241.562 5.365 1.181.7 3.174.592 5.08.565 1.459-.992 2.541-2.356 2.26-5.083-1.215-2.207-6.114-3.153-7.902-.847zm2.822 2.26c.374-.402 1.598-.402 1.977 0 .155.682-2.209 1.022-1.977 0zm-13.271.563c.476 1.163.464 2.2 1.413 2.825.036.023.625.299.564.282 2.114.633 5.328-.774 5.646-3.107.119-1.437-.434-2.2-.848-3.105-2.62-2.054-6.643.042-6.775 3.105zm3.386-.563v-.848c.363-.388 1.688-.492 1.697.283.08.905-1.237 1.027-1.697.565zm36.141.563c-1.825-.981-3.782.105-3.106 2.542.623.319.939.944 1.696 1.129.587-.354 1.189-.691 1.692-1.129-.057-.883.191-2.071-.282-2.542zM7.361 75.603c.894.387.943.061 1.978 0 .988-.962.852-2.377.282-3.672-2.108-1.214-3.083 1.985-2.26 3.672zm46.588 7.622c-.619.606-2.314.133-2.823.849-1.336-.112-2.358.089-3.39.281-2.53.012-4.484.597-7.058.564-2.047.4-4.519.377-6.777.565-1.42-.195-1.967.479-3.385.283-1.321-.002-2.296.342-2.259 1.694.938 1.332 3.337.847 5.361.847h6.213c2.859-.436 5.756-.833 9.036-.847.209-.638 1.582-.11 2.258-.283.333-.513 1.47-.223 1.975-.565 1.293-.401 3.015-.373 3.107-1.975-.176-1.047-.872-1.576-2.258-1.413zm10.728 5.648c.511.617.95 1.308 2.259 1.129 1.257-.438 1.82-1.57 1.692-3.389-1.195-2.594-4.28-.634-3.951 2.26zm-21.741 1.693c-1.814.16-3.309.645-5.081.847h-3.388c-.996.415-2.643.184-3.388.849 1.342.446 2.99.584 4.518.846h6.776c1.818-.725 5.237.155 5.081-2.541-.905-1.375-3.208-.026-4.518-.001z" style="fill-rule: evenodd; clip-rule: evenodd;"/></svg>